<?xml version="1.0" encoding="UTF-8"?>
<svg width="75px" height="50px" viewBox="0 0 75 50" version="1.1" xmlns="http://www.w3.org/2000/svg" xmlns:xlink="http://www.w3.org/1999/xlink">
    <!-- Generator: Sketch 59.1 (86144) - https://sketch.com -->
    <title>water-light</title>
    <desc>Created with Sketch.</desc>
    <g id="Page-1" stroke="none" stroke-width="1" fill="none" fill-rule="evenodd">
        <g id="Homepage-1440-Copy" transform="translate(-1179.000000, -2821.000000)" fill="#D3E9D6" fill-rule="nonzero">
            <g id="Group-3" transform="translate(100.000000, 2761.000000)">
                <g id="water-light" transform="translate(1079.000000, 60.000000)">
                    <path d="M73.9845513,45.8322973 C70.1440722,45.6369823 66.4728346,44.3218616 63.8040271,42.1473549 C63.0359313,41.522347 61.9423711,41.522347 61.1742753,42.1603759 C55.4851588,46.8349141 44.6406874,46.8869981 38.8083666,42.1473549 C38.0402708,41.522347 36.9467106,41.522347 36.1786148,42.1603759 C30.4894984,46.8349141 19.6450269,46.8869981 13.8127061,42.1473549 C13.0446103,41.522347 11.9510502,41.535368 11.1829543,42.1603759 C8.55320257,44.3218616 4.88196494,45.6369823 1.00243013,45.8322973 C0.442631488,45.8583393 0,46.3010532 0,46.8609561 L0,48.9443158 C0,49.5302607 0.49470578,50.0250586 1.08054157,49.9990166 C5.2855407,49.8037016 9.32129839,48.5146229 12.5108488,46.3661582 C19.5148412,51.0667384 30.6327027,51.0276754 37.5065093,46.3661582 C44.4974831,51.0667384 55.6283631,51.0276754 62.5021698,46.3661582 C65.7047388,48.5146229 69.7404964,49.8037016 73.9064399,49.9990166 C74.4922756,50.0250586 74.9869814,49.5302607 74.9869814,48.9443158 L74.9869814,46.8609561 C74.9869814,46.3010532 74.5443499,45.8583393 73.9845513,45.8322973 L73.9845513,45.8322973 Z M73.9845513,31.9388926 C70.1440722,31.7435777 66.4728346,30.4284569 63.8040271,28.2539502 C63.0359313,27.6289423 61.9423711,27.6289423 61.1742753,28.2669712 C55.4851588,32.9415095 44.6406874,32.9935934 38.8083666,28.2539502 C38.0402708,27.6289423 36.9467106,27.6289423 36.1786148,28.2669712 C30.4894984,32.9415095 19.6450269,32.9935934 13.8127061,28.2539502 C13.0446103,27.6289423 11.9510502,27.6419633 11.1829543,28.2669712 C8.55320257,30.4284569 4.89498351,31.7435777 1.01544871,31.9388926 C0.455650061,31.9649346 0.0130185732,32.4076485 0.0130185732,32.9675515 L0.0130185732,35.0509111 C0.0130185732,35.636856 0.507724353,36.1316539 1.09356015,36.1056119 C5.29855928,35.910297 9.33431696,34.6212182 12.5238674,32.4727535 C19.5278597,37.1733337 30.6457212,37.1342708 37.5195279,32.4727535 C44.5105016,37.1733337 55.6413817,37.1342708 62.5151883,32.4727535 C65.7177573,34.6212182 69.753515,35.910297 73.9194584,36.1056119 C74.5052942,36.1316539 75,35.636856 75,35.0509111 L75,32.9675515 C74.9869814,32.4076485 74.5443499,31.9649346 73.9845513,31.9388926 Z M73.9845513,18.0454879 C70.1440722,17.850173 66.4728346,16.5350522 63.8040271,14.3605456 C63.0359313,13.7355377 61.9423711,13.7355377 61.1742753,14.3735666 C55.4851588,19.0481048 44.6406874,19.1001888 38.8083666,14.3605456 C38.0402708,13.7355377 36.9467106,13.7355377 36.1786148,14.3735666 C30.4894984,19.0481048 19.6450269,19.1001888 13.8127061,14.3605456 C13.0446103,13.7355377 11.9510502,13.7485587 11.1829543,14.3735666 C8.55320257,16.5350522 4.88196494,17.850173 1.00243013,18.0454879 C0.442631488,18.0715299 0,18.5142439 0,19.0741468 L0,21.1575064 C0,21.7434513 0.49470578,22.2382492 1.08054157,22.2122072 C5.2855407,22.0168923 9.32129839,20.7278135 12.5108488,18.5793489 C19.5148412,23.2799291 30.6327027,23.2408661 37.5065093,18.5793489 C44.4974831,23.2799291 55.6283631,23.2408661 62.5021698,18.5793489 C65.7047388,20.7278135 69.7404964,22.0168923 73.9064399,22.2122072 C74.4922756,22.2382492 74.9869814,21.7434513 74.9869814,21.1575064 L74.9869814,19.0741468 C74.9869814,18.5142439 74.5443499,18.0715299 73.9845513,18.0454879 L73.9845513,18.0454879 Z M73.9845513,4.15208327 C70.1440722,3.9567683 66.4728346,2.64164752 63.8040271,0.467140882 C63.0359313,-0.157867014 61.9423711,-0.157867014 61.1742753,0.48016188 C55.4851588,5.1547001 44.6406874,5.20678409 38.8083666,0.467140882 C38.0402708,-0.157867014 36.9467106,-0.157867014 36.1786148,0.48016188 C30.4894984,5.1547001 19.6450269,5.20678409 13.8127061,0.467140882 C13.0446103,-0.157867014 11.9510502,-0.144846016 11.1829543,0.48016188 C8.55320257,2.64164752 4.88196494,3.9567683 1.00243013,4.15208327 C0.442631488,4.17812526 4.26325641e-14,4.62083919 4.26325641e-14,5.18074209 L4.26325641e-14,7.26410175 C4.26325641e-14,7.85004665 0.49470578,8.34484457 1.08054157,8.31880257 C5.2855407,8.1234876 9.32129839,6.83440882 12.5108488,4.68594418 C19.5148412,9.38652439 30.6327027,9.3474614 37.5065093,4.68594418 C44.4974831,9.38652439 55.6283631,9.3474614 62.5021698,4.68594418 C65.7047388,6.83440882 69.7404964,8.1234876 73.9064399,8.31880257 C74.4922756,8.34484457 74.9869814,7.85004665 74.9869814,7.26410175 L74.9869814,5.18074209 C74.9869814,4.62083919 74.5443499,4.17812526 73.9845513,4.15208327 L73.9845513,4.15208327 Z" id="Shape"></path>
                </g>
            </g>
        </g>
    </g>
</svg>