<?xml version="1.0" encoding="UTF-8"?>
<svg width="58px" height="58px" viewBox="0 0 58 58" version="1.1" xmlns="http://www.w3.org/2000/svg" xmlns:xlink="http://www.w3.org/1999/xlink">
    <!-- Generator: Sketch 59.1 (86144) - https://sketch.com -->
    <title>sun-light</title>
    <desc>Created with Sketch.</desc>
    <g id="Page-1" stroke="none" stroke-width="1" fill="none" fill-rule="evenodd">
        <g id="Homepage-1440-Copy" transform="translate(-692.000000, -2821.000000)" fill="#D3E9D6" fill-rule="nonzero">
            <g id="Group-3" transform="translate(100.000000, 2761.000000)">
                <g id="sun-light" transform="translate(591.500000, 60.000000)">
                    <path d="M29.5,16.2764783 C22.4992188,16.2764783 16.8125,21.9748035 16.8125,28.9759266 C16.8125,35.9770497 22.4992188,41.6753748 29.5,41.6753748 C36.5007813,41.6753748 42.1875,35.9770497 42.1875,28.9759266 C42.1875,21.9748035 36.5007813,16.2764783 29.5,16.2764783 Z M29.5,38.0501978 C24.5042969,38.0501978 20.4375,33.9832023 20.4375,28.9759266 C20.4375,23.9686508 24.5042969,19.9016554 29.5,19.9016554 C34.4957031,19.9016554 38.5625,23.9686508 38.5625,28.9759266 C38.5625,33.9832023 34.4957031,38.0501978 29.5,38.0501978 Z M58.5,28.9759266 C58.5,28.3755066 58.1941406,27.8090727 57.6957031,27.4692124 L48.3046875,21.181796 L50.5023437,10.0910201 C50.615625,9.50192881 50.434375,8.87885151 50.0039062,8.45969041 C49.5734375,8.02920064 48.9730469,7.83661312 48.3726563,7.96122858 L37.29375,10.1589921 L31.0066406,0.756189267 C30.3269531,-0.252063089 28.6730469,-0.252063089 27.9933594,0.756189267 L21.70625,10.1589921 L10.6273438,7.9498999 C10.0269531,7.82528444 9.4265625,8.01787197 8.99609375,8.44836174 C8.565625,8.87885151 8.384375,9.49060013 8.49765625,10.0796914 L10.6953125,21.181796 L1.30429687,27.4692124 C0.805859375,27.8090727 0.5,28.3755066 0.5,28.9759266 C0.5,29.5763465 0.805859375,30.1427804 1.30429687,30.4826408 L10.6953125,36.7700571 L8.49765625,47.860833 C8.384375,48.4499243 8.565625,49.0730016 8.99609375,49.4921627 C9.4265625,49.9226525 10.0269531,50.11524 10.6273438,49.9906245 L21.70625,47.792861 L27.9933594,57.1956639 C28.3332031,57.7054544 28.8996094,58 29.5,58 C30.1003906,58 30.6667969,57.6941257 31.0066406,57.1956639 L37.29375,47.792861 L48.3726563,49.9906245 C48.984375,50.1265687 49.5847656,49.9226525 50.0039062,49.4921627 C50.434375,49.0616729 50.615625,48.4499243 50.5023437,47.860833 L48.3046875,36.7700571 L57.6957031,30.4826408 C58.1941406,30.1427804 58.5,29.5763465 58.5,28.9759266 Z M45.2800781,34.4250208 C44.6683594,34.8328532 44.3738281,35.5692172 44.5097656,36.282924 L46.4128906,45.9009717 L36.8066406,43.9977538 C36.0589844,43.8391523 35.3566406,44.1563553 34.9488281,44.7681039 L29.5,52.9247522 L24.0511719,44.7794326 C23.7113281,44.2696421 23.1449219,43.9750964 22.5445313,43.9750964 C22.43125,43.9750964 22.3066406,43.9864251 22.1933594,44.0090825 L12.5871094,45.9123004 L14.4902344,36.2942526 C14.6261719,35.5805459 14.3316406,34.8441818 13.7199219,34.4363494 L5.575,28.9872552 L13.7199219,23.5268324 C14.3316406,23.119 14.6261719,22.3826359 14.4902344,21.6689291 L12.5871094,12.0508814 L22.1933594,13.9540993 C22.9296875,14.1013721 23.6433594,13.7954978 24.0511719,13.1837492 L29.5,5.02710093 L34.9488281,13.1837492 C35.3566406,13.7954978 36.0703125,14.1013721 36.8066406,13.9540993 L46.4128906,12.0508814 L44.5097656,21.6689291 C44.3738281,22.3826359 44.6683594,23.119 45.2800781,23.5268324 L53.425,28.9872552 L45.2800781,34.4250208 Z" id="Shape"></path>
                </g>
            </g>
        </g>
    </g>
</svg>