<?xml version="1.0" encoding="UTF-8"?>
<svg width="128px" height="56px" viewBox="0 0 128 56" version="1.1" xmlns="http://www.w3.org/2000/svg" xmlns:xlink="http://www.w3.org/1999/xlink">
    <!-- Generator: Sketch 59.1 (86144) - https://sketch.com -->
    <title>Group</title>
    <desc>Created with Sketch.</desc>
    <g id="Page-1" stroke="none" stroke-width="1" fill="none" fill-rule="evenodd">
        <g id="About" transform="translate(-36.000000, -27.000000)">
            <g id="Group-7">
                <g id="Group" transform="translate(36.000000, 27.000000)">
                    <g id="Group-660" transform="translate(16.000000, 0.000000)">
                        <path d="M102.689948,12.7183778 C102.242467,12.7723037 101.544022,12.7899333 101.275948,12.7899333 C100.989726,12.7899333 100.057948,12.7723037 99.6291333,12.7183778 L99.6109852,12.8080815 C100.02217,13.0046 100.1658,13.1663778 100.1658,13.4344519 L100.1658,16.7820074 C99.270837,17.2657852 98.232763,17.4980815 96.9795037,17.4980815 C94.3656519,17.4980815 92.1640222,15.2430444 92.1640222,11.9841556 C92.1640222,8.67237778 94.4014296,6.4526 96.9795037,6.4526 C99.270837,6.4526 100.810319,7.61615556 101.651874,9.42474815 L101.759207,9.38897037 L101.687652,7.49067407 C100.595652,6.32763704 98.7512815,5.73652593 96.9795037,5.73652593 C93.2918,5.73652593 90.086837,8.18911852 90.086837,11.9841556 C90.086837,15.761563 93.2918,18.2323037 96.9795037,18.2323037 C99.1272074,18.2323037 101.025504,17.2657852 102.152763,15.6360815 L102.152763,13.4344519 C102.152763,13.1482296 102.296393,12.9869704 102.708096,12.8080815 L102.689948,12.7183778 Z M85.9532074,6.02326667 C85.7022444,6.07719259 85.2371333,6.11245185 84.9509111,6.11245185 C84.6646889,6.11245185 84.1809111,6.07719259 83.9304667,6.02326667 L83.9123185,6.11245185 C84.2877259,6.27371111 84.4495037,6.48837778 84.4852815,6.88245185 C84.5926148,8.02837778 84.6283926,9.19141481 84.6823185,11.9841556 C84.7004667,12.9148963 84.7533556,14.4730444 84.7715037,15.4934889 C82.4983185,13.1840074 80.6720963,11.2504519 80.6720963,11.2504519 C80.6720963,11.2504519 78.8277259,9.3168963 75.8742444,6.11245185 L74.7998741,6.11245185 C74.5136519,6.11245185 73.6897259,6.07719259 73.4392815,6.02326667 L73.4211333,6.11245185 C73.8872815,6.32763704 74.2989852,6.7746 74.3166148,7.29415556 C74.3529111,8.43956296 74.3529111,9.19141481 74.3529111,11.9841556 C74.3529111,14.7592667 74.3342444,15.9233407 74.2450593,17.0863778 C74.2269111,17.4446741 74.0485407,17.695637 73.6897259,17.8563778 L73.7078741,17.9279333 C73.958837,17.8745259 74.3881704,17.8563778 74.6749111,17.8563778 C74.9611333,17.8563778 75.4091333,17.8745259 75.6595778,17.9279333 L75.6772074,17.8563778 C75.3370593,17.695637 75.1581704,17.4623037 75.1218741,17.0863778 C75.0145407,15.9233407 74.9435037,14.7592667 74.9435037,11.9841556 C74.9435037,10.1760815 74.8895778,8.83363704 74.8538,7.65193333 C78.1474296,11.1965259 79.4898741,12.5928963 79.4898741,12.5928963 C79.4898741,12.5928963 80.8333556,14.0074148 84.8430593,18.2323037 L85.326837,18.2323037 C85.2910593,17.0687481 85.3086889,14.7592667 85.3086889,11.9841556 C85.3086889,9.19141481 85.326837,8.02837778 85.4165407,6.88245185 C85.4518,6.48837778 85.6130593,6.27371111 85.9713556,6.11245185 L85.9532074,6.02326667 Z M69.644763,17.8563778 C69.2869852,17.695637 69.1075778,17.5162296 69.0894296,17.0863778 C69.0365407,15.9233407 69.0536519,14.7592667 69.0536519,11.9841556 C69.0536519,9.19141481 69.0365407,8.02837778 69.0894296,6.88245185 C69.1075778,6.4526 69.2869852,6.25556296 69.644763,6.0943037 L69.6271333,6.02326667 C69.3761704,6.07719259 68.4101704,6.11245185 68.1410593,6.11245185 C67.854837,6.11245185 66.9059481,6.0943037 66.636837,6.02326667 L66.6197259,6.0943037 C66.9769852,6.25556296 67.1563926,6.48837778 67.1745407,6.88245185 C67.2103185,8.02837778 67.2103185,9.19141481 67.2103185,11.9841556 C67.2103185,14.7592667 67.2103185,15.9233407 67.1745407,17.0863778 C67.1563926,17.4980815 66.9956519,17.6769704 66.6197259,17.8563778 L66.636837,17.9279333 C66.9059481,17.8563778 67.854837,17.8563778 68.1410593,17.8563778 C68.4101704,17.8563778 69.3761704,17.8921556 69.6271333,17.9279333 L69.644763,17.8563778 Z M64.4538741,6.02326667 C64.1142444,6.07719259 63.6838741,6.11245185 63.3266148,6.11245185 C62.9683185,6.11245185 62.4129852,6.07719259 62.126763,6.02326667 L62.1091333,6.11245185 C62.6281704,6.34474815 62.7360222,6.5423037 62.5923926,6.88245185 C62.1449111,8.02837778 61.3038741,10.1221556 60.5515037,11.7694889 C59.9785407,13.0046 59.4055778,14.4009704 58.850763,15.6003037 C58.2954296,14.4009704 57.5793556,12.7541556 57.1495037,11.8057852 C55.9154296,9.06645185 55.3777259,8.02837778 54.8949852,6.88245185 C54.7513556,6.50600741 54.8581704,6.32763704 55.3600963,6.11245185 L55.3419481,6.02326667 C55.0557259,6.07719259 53.8558741,6.11245185 53.4975778,6.11245185 C53.1398,6.11245185 52.2266889,6.07719259 51.8865407,6.02326667 L51.8689111,6.11245185 C52.2266889,6.21978519 52.6565407,6.64963704 52.9251333,7.16867407 C53.5162444,8.3146 53.9098,9.10171111 55.1983185,11.8057852 C56.5060222,14.5088222 57.5793556,16.925637 58.0631333,18.0528963 L58.3135778,18.0528963 C58.7973556,16.925637 59.8535778,14.5088222 61.1602444,11.8057852 C62.4669111,9.10171111 62.9149111,8.18911852 63.5055037,7.02504444 C63.7735778,6.50600741 64.1323926,6.21978519 64.4720222,6.11245185 L64.4538741,6.02326667 Z M49.7212074,17.8563778 C49.3634296,17.695637 49.1845407,17.5162296 49.1658741,17.0863778 C49.1129852,15.9233407 49.1306148,14.7592667 49.1306148,11.9841556 C49.1306148,9.19141481 49.1129852,8.02837778 49.1658741,6.88245185 C49.1845407,6.4526 49.3634296,6.25556296 49.7212074,6.0943037 L49.7035778,6.02326667 C49.4531333,6.07719259 48.4855778,6.11245185 48.2175037,6.11245185 C47.9312815,6.11245185 46.9823926,6.0943037 46.7132815,6.02326667 L46.6961704,6.0943037 C47.0539481,6.25556296 47.232837,6.48837778 47.2509852,6.88245185 C47.286763,8.02837778 47.286763,9.19141481 47.286763,11.9841556 C47.286763,14.7592667 47.286763,15.9233407 47.2509852,17.0863778 C47.232837,17.4980815 47.0720963,17.6769704 46.6961704,17.8563778 L46.7132815,17.9279333 C46.9823926,17.8563778 47.9312815,17.8563778 48.2175037,17.8563778 C48.4855778,17.8563778 49.4531333,17.8921556 49.7035778,17.9279333 L49.7212074,17.8563778 Z M43.9226148,16.1198593 C42.4723185,17.1579333 40.090763,17.3554889 37.6563185,17.301563 C37.6029111,16.1374889 37.6205407,14.7592667 37.6205407,11.9841556 C37.6205407,9.19141481 37.6029111,8.02837778 37.6563185,6.88245185 C37.6744667,6.50600741 37.8175778,6.25556296 38.2111333,6.0943037 L38.1935037,6.02326667 C37.9430593,6.07719259 36.9760222,6.11245185 36.7079481,6.11245185 C36.4212074,6.11245185 35.4723185,6.0943037 35.2037259,6.02326667 L35.1860963,6.0943037 C35.5438741,6.25556296 35.722763,6.47022963 35.7409111,6.88245185 C35.7766889,8.02837778 35.7766889,9.19141481 35.7766889,11.9841556 C35.7766889,14.7592667 35.7766889,15.9233407 35.7409111,17.0863778 C35.722763,17.4804519 35.5796519,17.6769704 35.1860963,17.8563778 L35.2037259,17.9279333 C35.8124667,17.8745259 36.7079481,17.8563778 37.3156519,17.8563778 L43.2594296,17.8563778 C43.2775778,17.6769704 43.9226148,16.3884519 44.0118,16.1914148 L43.9226148,16.1198593 Z" id="Fill-652" fill="#F7F3ED"></path>
                        <path d="M111.694178,34.1992 C111.247215,34.2531259 110.54877,34.2707556 110.280178,34.2707556 C109.993956,34.2707556 109.062696,34.2531259 108.633363,34.1992 L108.615215,34.2889037 C109.026919,34.4854222 109.170548,34.6472 109.170548,34.9152741 L109.170548,38.2628296 C108.275067,38.7466074 107.236993,38.9789037 105.983733,38.9789037 C103.3704,38.9789037 101.168252,36.7238667 101.168252,33.4649778 C101.168252,30.1532 103.406178,27.9334222 105.983733,27.9334222 C108.275067,27.9334222 109.815067,29.0969778 110.656104,30.9055704 L110.763437,30.8697926 L110.691881,28.9714963 C109.599881,27.8084593 107.75603,27.2173481 105.983733,27.2173481 C102.29603,27.2173481 99.0910667,29.6699407 99.0910667,33.4649778 C99.0910667,37.2423852 102.29603,39.7131259 105.983733,39.7131259 C108.131437,39.7131259 110.029733,38.7466074 111.157511,37.1169037 L111.157511,34.9152741 C111.157511,34.6290519 111.301141,34.4677926 111.712326,34.2889037 L111.694178,34.1992 Z M94.957437,27.5040889 C94.7069926,27.5574963 94.241363,27.5932741 93.9551407,27.5932741 C93.6689185,27.5932741 93.1851407,27.5574963 92.9346963,27.5040889 L92.9165481,27.5932741 C93.2924741,27.7545333 93.4537333,27.9692 93.4895111,28.3632741 C93.5968444,29.5092 93.6326222,30.672237 93.6865481,33.4649778 C93.7046963,34.3957185 93.7575852,35.9538667 93.7757333,36.9743111 C91.5025481,34.6648296 89.6768444,32.7312741 89.6768444,32.7312741 C89.6768444,32.7312741 87.8319556,30.7977185 84.8789926,27.5932741 L83.8041037,27.5932741 C83.5184,27.5932741 82.6944741,27.5574963 82.4435111,27.5040889 L82.425363,27.5932741 C82.8915111,27.8084593 83.3032148,28.2554222 83.3208444,28.7749778 C83.3571407,29.9203852 83.3571407,30.672237 83.3571407,33.4649778 C83.3571407,36.2400889 83.3389926,37.404163 83.2492889,38.5672 C83.2311407,38.9254963 83.0527704,39.1764593 82.6944741,39.3372 L82.7126222,39.4087556 C82.9630667,39.3553481 83.3929185,39.3372 83.6791407,39.3372 C83.965363,39.3372 84.413363,39.3553481 84.6638074,39.4087556 L84.681437,39.3372 C84.3412889,39.1764593 84.1629185,38.9431259 84.1261037,38.5672 C84.0192889,37.404163 83.9477333,36.2400889 83.9477333,33.4649778 C83.9477333,31.6569037 83.8938074,30.3144593 83.8580296,29.1327556 C87.1516593,32.6773481 88.4946222,34.0737185 88.4946222,34.0737185 C88.4946222,34.0737185 89.8375852,35.488237 93.8472889,39.7131259 L94.3310667,39.7131259 C94.2952889,38.5495704 94.3129185,36.2400889 94.3129185,33.4649778 C94.3129185,30.672237 94.3310667,29.5092 94.4207704,28.3632741 C94.4560296,27.9692 94.6172889,27.7545333 94.9755852,27.5932741 L94.957437,27.5040889 Z M78.6489926,39.3372 C78.2912148,39.1764593 78.1118074,38.9970519 78.0936593,38.5672 C78.0407704,37.404163 78.0578815,36.2400889 78.0578815,33.4649778 C78.0578815,30.672237 78.0407704,29.5092 78.0936593,28.3632741 C78.1118074,27.9334222 78.2912148,27.7363852 78.6489926,27.5751259 L78.631363,27.5040889 C78.3809185,27.5574963 77.4144,27.5932741 77.1452889,27.5932741 C76.8590667,27.5932741 75.9101778,27.5751259 75.6415852,27.5040889 L75.6239556,27.5751259 C75.9812148,27.7363852 76.1606222,27.9692 76.1787704,28.3632741 C76.2145481,29.5092 76.2145481,30.672237 76.2145481,33.4649778 C76.2145481,36.2400889 76.2145481,37.404163 76.1787704,38.5672 C76.1606222,38.9789037 75.9998815,39.1577926 75.6239556,39.3372 L75.6415852,39.4087556 C75.9101778,39.3372 76.8590667,39.3372 77.1452889,39.3372 C77.4144,39.3372 78.3809185,39.3729778 78.631363,39.4087556 L78.6489926,39.3372 Z M73.4586222,27.5040889 C73.1184741,27.5574963 72.6886222,27.5932741 72.3308444,27.5932741 C71.9725481,27.5932741 71.4172148,27.5574963 71.1309926,27.5040889 L71.1138815,27.5932741 C71.6324,27.8255704 71.7402519,28.0231259 71.5966222,28.3632741 C71.1496593,29.5092 70.3081037,31.6029778 69.5557333,33.2497926 C68.9832889,34.4854222 68.4098074,35.8817926 67.8549926,37.0811259 C67.2996593,35.8817926 66.5835852,34.2349778 66.1542519,33.2866074 C64.9196593,30.5472741 64.3819556,29.5092 63.8992148,28.3632741 C63.7555852,27.9868296 63.8624,27.8084593 64.3643259,27.5932741 L64.3461778,27.5040889 C64.0599556,27.5574963 62.8601037,27.5932741 62.5018074,27.5932741 C62.1440296,27.5932741 61.2309185,27.5574963 60.8907704,27.5040889 L60.8731407,27.5932741 C61.2309185,27.7006074 61.6607704,28.1304593 61.929363,28.6494963 C62.5204741,29.7954222 62.9140296,30.5825333 64.2030667,33.2866074 C65.5102519,35.9896444 66.5835852,38.4064593 67.0678815,39.5337185 L67.3178074,39.5337185 C67.8015852,38.4064593 68.8578074,35.9896444 70.1644741,33.2866074 C71.4711407,30.5825333 71.9196593,29.6699407 72.5102519,28.5063852 C72.7778074,27.9868296 73.1366222,27.7006074 73.4762519,27.5932741 L73.4586222,27.5040889 Z M52.353363,38.9789037 C49.9365481,38.9789037 47.8059556,36.8846074 47.8059556,33.4649778 C47.8059556,30.0277185 49.9365481,27.9334222 52.353363,27.9334222 C54.7701778,27.9334222 56.9007704,30.0277185 56.9007704,33.4649778 C56.9007704,36.8846074 54.7701778,38.9789037 52.353363,38.9789037 L52.353363,38.9789037 Z M52.353363,27.2173481 C48.8621778,27.2173481 45.8008444,29.6699407 45.8008444,33.4649778 C45.8008444,37.2423852 48.8621778,39.7131259 52.353363,39.7131259 C55.8445481,39.7131259 58.9058815,37.2423852 58.9058815,33.4649778 C58.9058815,29.6699407 55.8445481,27.2173481 52.353363,27.2173481 L52.353363,27.2173481 Z M43.9222519,37.6006815 C42.4719556,38.6387556 40.0909185,38.8363111 37.6559556,38.7823852 C37.6030667,37.6188296 37.6206963,36.2400889 37.6206963,33.4649778 C37.6206963,30.672237 37.6030667,29.5092 37.6559556,28.3632741 C37.6746222,27.9868296 37.8177333,27.7363852 38.2112889,27.5751259 L38.1936593,27.5040889 C37.9432148,27.5574963 36.9756593,27.5932741 36.7075852,27.5932741 C36.421363,27.5932741 35.4724741,27.5751259 35.203363,27.5040889 L35.1862519,27.5751259 C35.5440296,27.7363852 35.7229185,27.9510519 35.7410667,28.3632741 C35.7768444,29.5092 35.7768444,30.672237 35.7768444,33.4649778 C35.7768444,36.2400889 35.7768444,37.404163 35.7410667,38.5672 C35.7229185,38.9612741 35.5798074,39.1577926 35.1862519,39.3372 L35.203363,39.4087556 C35.8126222,39.3553481 36.7075852,39.3372 37.3158074,39.3372 L43.2595852,39.3372 C43.2777333,39.1577926 43.9222519,37.8692741 44.0119556,37.672237 L43.9222519,37.6006815 Z" id="Fill-654" fill="#F7F3ED"></path>
                        <path d="M76.4364222,55.5666222 C76.1616074,55.447363 76.0781259,55.3161778 76.0662,55.0532889 C76.0423481,54.2775852 76.0423481,53.5008444 76.0423481,51.6507704 C76.0423481,49.7882519 76.0423481,49.0125481 76.0662,48.2487704 C76.0781259,47.9858815 76.1735333,47.8422519 76.4364222,47.7349185 L76.4239778,47.6752889 C76.149163,47.7110667 75.8390889,47.7349185 75.5528667,47.7349185 C75.3610148,47.7349185 74.8243481,47.7224741 74.7289407,47.7110667 C74.4064222,48.4748444 73.9527185,49.6689926 73.1054593,51.6149926 C72.8664222,52.1641037 72.5200519,53.0481778 72.1498296,53.8591407 C71.7801259,53.0357333 71.9714593,53.4650667 71.111237,51.6507704 C70.2515333,49.7882519 69.655237,48.4867704 69.3207926,47.7110667 C69.2010148,47.7224741 68.6042,47.7349185 68.4014593,47.7349185 C68.1624222,47.7349185 67.6848667,47.6991407 67.5656074,47.6752889 L67.5536815,47.7349185 C67.8165704,47.8546963 67.9119778,47.9972889 67.9239037,48.2487704 C67.9477556,49.0125481 67.9477556,49.7882519 67.9477556,51.6507704 C67.9477556,53.5008444 67.8995333,54.2775852 67.8762,55.0532889 C67.8637556,55.3400296 67.7569407,55.447363 67.5054593,55.5666222 L67.5179037,55.6148444 C67.6848667,55.5780296 67.9949407,55.5666222 68.1743481,55.5666222 C68.3662,55.5666222 68.6638296,55.5780296 68.8313111,55.6148444 L68.8427185,55.5666222 C68.6161259,55.4587704 68.4849407,55.3400296 68.4730148,55.0532889 C68.449163,54.2775852 68.4014593,53.5008444 68.4014593,51.6507704 C68.4014593,50.0869185 68.3418296,49.2629926 68.3179778,48.5588444 L68.4014593,48.701437 C68.7234593,49.3703259 69.0107185,50.0148444 69.7744963,51.6507704 C70.6456074,53.5132889 71.207163,54.6830667 71.529163,55.447363 L71.923237,55.447363 C72.2457556,54.6830667 72.6517556,53.5729185 73.4995333,51.6149926 C74.1798296,50.0744741 74.5256815,49.2749185 74.8601259,48.5702519 C74.8601259,49.2505481 74.8129407,50.0511407 74.8129407,51.6507704 C74.8129407,53.5132889 74.8129407,54.2775852 74.7885704,55.0532889 C74.7761259,55.3519556 74.6449407,55.4587704 74.4188667,55.5666222 L74.4302741,55.6148444 C74.597237,55.5780296 75.2427926,55.5666222 75.4330889,55.5666222 C75.6244222,55.5666222 76.2570148,55.5780296 76.4239778,55.6148444 L76.4364222,55.5666222 Z M57.6966444,52.7609185 L58.1384222,51.7819556 C58.5568667,50.8512148 58.9027185,50.0272889 59.2724222,49.2391407 C59.6426444,50.0272889 59.9413111,50.743363 60.4069407,51.7581037 L60.8606444,52.7609185 L57.6966444,52.7609185 Z M63.9282,55.5666222 C63.7021259,55.4950667 63.4034593,55.2083259 63.2240519,54.8624741 C62.8299778,54.0862519 62.5795333,53.5729185 61.7084222,51.7581037 C60.8367926,49.9552148 60.1321259,48.3555852 59.8101259,47.6032148 L59.6426444,47.6032148 C59.3206444,48.3555852 58.6040519,49.9552148 57.7329407,51.7581037 C56.873237,53.5729185 56.5621259,54.1821778 56.1685704,54.9578815 C55.9896815,55.2923259 55.7625704,55.4950667 55.5235333,55.5666222 L55.5359778,55.6148444 C55.7625704,55.5780296 56.061237,55.5666222 56.2878296,55.5666222 C56.5268667,55.5666222 56.8965704,55.5780296 57.0998296,55.6148444 L57.111237,55.5666222 C56.8136074,55.4587704 56.6575333,55.3519556 56.7773111,55.0532889 C57.0044222,54.5161037 57.1713852,54.0266222 57.5296815,53.1664 L61.0514593,53.1664 C61.4579778,54.0266222 61.6959778,54.5161037 61.9230889,55.0532889 C62.0304222,55.3275852 61.899237,55.447363 61.6005704,55.5666222 L61.6130148,55.6148444 C61.8157556,55.5780296 62.6153111,55.5666222 62.8543481,55.5666222 C63.0814593,55.5666222 63.6902,55.5780296 63.9167926,55.6148444 L63.9282,55.5666222 Z M52.4839778,54.4082519 C51.6128667,55.0289185 50.2279037,55.1964 48.7713852,55.1964 L48.3057556,55.1964 C48.2824222,54.7426963 48.2824222,54.229363 48.2824222,53.5132889 L48.2824222,51.7461778 L48.2824222,51.7223259 C50.6458296,51.7347704 50.9320519,51.8177333 51.0637556,52.3435111 L51.1233852,52.3310667 C51.0870889,52.0567704 51.075163,51.8540296 51.075163,51.5315111 C51.075163,51.2209185 51.0870889,51.0176593 51.1233852,50.731437 L51.0637556,50.7189926 C50.9320519,51.2084741 50.6458296,51.3282519 48.2824222,51.3521037 L48.2824222,49.8359556 C48.2824222,49.2391407 48.2824222,48.7978815 48.3057556,48.0926963 C48.5924963,48.069363 48.8673111,48.069363 49.129163,48.069363 C50.2279037,48.069363 51.1824963,48.2601778 51.9587185,48.9529185 L52.0188667,48.8808444 C51.9234593,48.6661778 51.6486444,47.9143259 51.6362,47.7349185 L47.983237,47.7349185 C47.4699037,47.7349185 47.0758296,47.7110667 46.6703481,47.6752889 L46.6579037,47.7349185 C46.8139778,47.8064741 47.0162,47.9018815 47.0286444,48.2487704 C47.0519778,49.0125481 47.0519778,49.7882519 47.0519778,51.6507704 C47.0519778,53.5008444 47.0519778,54.2775852 47.0286444,55.0532889 C47.0162,55.3996593 46.8139778,55.4950667 46.6579037,55.5666222 L46.6703481,55.6148444 C47.0758296,55.5780296 47.4699037,55.5666222 48.0190148,55.5666222 L52.0427185,55.5666222 C52.0546444,55.447363 52.4839778,54.5876593 52.5436074,54.4564741 L52.4839778,54.4082519 Z M42.4833111,48.8808444 C42.4236815,48.701437 42.1260519,47.8422519 42.1136074,47.7349185 L35.8213852,47.7349185 C35.8099778,47.8422519 35.4999037,48.7138815 35.4402741,48.8932889 L35.4999037,48.9529185 C36.3113852,48.3441778 37.3976815,48.1289926 38.3527926,48.1289926 L38.3527926,51.6507704 C38.3527926,53.5132889 38.3527926,54.2775852 38.3289407,55.0532889 C38.3170148,55.3275852 38.2216074,55.4587704 37.9587185,55.5666222 L37.971163,55.6148444 C38.1381259,55.5780296 38.7826444,55.5666222 38.9739778,55.5666222 C39.1523481,55.5666222 39.7968667,55.5780296 39.9648667,55.6148444 L39.9762741,55.5666222 C39.7258296,55.4587704 39.6190148,55.3275852 39.6065704,55.0532889 C39.5822,54.2775852 39.5822,53.5132889 39.5822,51.6507704 L39.5822,48.1289926 C40.5378296,48.1289926 41.6122,48.3317333 42.4236815,48.9404741 L42.4833111,48.8808444 Z" id="Fill-656" fill="#F7F3ED"></path>
                        <path d="M12.6609259,0.276266667 C5.72677778,0.276266667 0.0858148148,5.8938963 0.0858148148,12.7979704 C0.0858148148,15.4299704 0.908703704,17.8721926 2.30766667,19.8902667 L3.85907407,18.7448593 C2.69966667,17.0487852 2.01937037,15.0016741 2.01937037,12.7979704 C2.01937037,6.95582222 6.79285185,2.20204444 12.6609259,2.20204444 C18.5274444,2.20204444 23.3014444,6.95582222 23.3014444,12.7979704 C23.3014444,18.0987852 19.3695185,22.4896 14.2605556,23.2616741 L14.2605556,25.2081926 C20.4387037,24.4210815 25.235,19.1627852 25.235,12.7979704 C25.235,5.8938963 19.594037,0.276266667 12.6609259,0.276266667" id="Fill-658" fill="#D4AE7A"></path>
                    </g>
                    <polyline id="Fill-661" fill="#FFFFFF" points="31 42 15 42 15 44 31 44"></polyline>
                    <polyline id="Fill-662" fill="#FFFFFF" points="31 30 15 30 15 32 31 32"></polyline>
                    <polygon id="Fill-663" fill="#FFFFFF" points="31.0200291 55.0445021 31.0200291 54.0890042 16.9604673 54.0890042 16.9599419 21.8629467 30.0395327 12.7211421 30.0400581 55.0445021 31.0200291 55.0445021 31.0200291 54.0890042 31.0200291 55.0445021 32 55.0445021 32 9 15 20.8806928 15 56 32 56 32 55.0445021"></polygon>
                    <polygon id="Fill-664" fill="#FFFFFF" points="16.0200896 55.0547614 16.0200896 54.1095228 1.95982074 54.1095228 1.95982074 31.7088441 15.0396538 23.4877625 15.0401793 55.0547614 16.0200896 55.0547614 16.0200896 54.1095228 16.0200896 55.0547614 17 55.0547614 17 20 0 30.6841994 0 56 17 56 17 55.0547614"></polygon>
                </g>
            </g>
        </g>
    </g>
</svg>