<?xml version="1.0" encoding="UTF-8"?>
<svg width="172px" height="75px" viewBox="0 0 172 75" version="1.1" xmlns="http://www.w3.org/2000/svg" xmlns:xlink="http://www.w3.org/1999/xlink">
    <!-- Generator: Sketch 59.1 (86144) - https://sketch.com -->
    <title>Group</title>
    <desc>Created with Sketch.</desc>
    <g id="Page-1" stroke="none" stroke-width="1" fill="none" fill-rule="evenodd">
        <g id="Homepage-1440-Copy" transform="translate(-52.000000, -55.000000)">
            <g id="Group-7" transform="translate(-1728.000000, -2265.000000)">
                <g id="Group" transform="translate(1780.000000, 2320.000000)">
                    <g id="Group-660" transform="translate(22.000000, 0.000000)">
                        <path d="M137.739348,17.0852525 C137.139135,17.157694 136.202303,17.1813767 135.842731,17.1813767 C135.458818,17.1813767 134.209012,17.157694 133.633838,17.0852525 L133.609495,17.2057561 C134.161023,17.4697495 134.353675,17.687074 134.353675,18.0471917 L134.353675,22.5441356 C133.15325,23.1940193 131.760868,23.5060748 130.079855,23.5060748 C126.573862,23.5060748 123.620788,20.4767674 123.620788,16.0989339 C123.620788,11.6500521 126.621851,8.6681102 130.079855,8.6681102 C133.15325,8.6681102 135.218176,10.2311744 136.346966,12.66075 L136.490933,12.6126879 L136.394955,10.0626086 C134.930241,8.50024101 132.456364,7.70617098 130.079855,7.70617098 C125.133491,7.70617098 120.834633,11.000865 120.834633,16.0989339 C120.834633,21.17332 125.133491,24.4923934 130.079855,24.4923934 C132.960598,24.4923934 135.506807,23.1940193 137.018814,21.0047543 L137.018814,18.0471917 C137.018814,17.6626946 137.211467,17.4460668 137.76369,17.2057561 L137.739348,17.0852525 Z M115.290142,8.0913646 C114.953522,8.16380608 114.329663,8.21117166 113.945749,8.21117166 C113.561836,8.21117166 112.912938,8.16380608 112.577014,8.0913646 L112.552672,8.21117166 C113.056211,8.42779953 113.273205,8.71617233 113.321194,9.24555235 C113.465162,10.7849337 113.513151,12.3473013 113.585483,16.0989339 C113.609825,17.3492459 113.680766,19.4423867 113.705108,20.8132023 C110.656055,17.7107568 108.20652,15.1133119 108.20652,15.1133119 C108.20652,15.1133119 105.732642,12.5158671 101.7711,8.21117166 L100.330033,8.21117166 C99.9461193,8.21117166 98.8409769,8.16380608 98.5050525,8.0913646 L98.4807102,8.21117166 C99.1059607,8.50024101 99.6581841,9.1006694 99.681831,9.79861516 C99.7305157,11.3373 99.7305157,12.3473013 99.7305157,16.0989339 C99.7305157,19.8268837 99.7054778,21.3906444 99.5858526,22.953012 C99.5615103,23.4343299 99.3222598,23.7714614 98.8409769,23.9873927 L98.8653192,24.083517 C99.201939,24.0117721 99.7778094,23.9873927 100.162418,23.9873927 C100.546332,23.9873927 101.14724,24.0117721 101.483164,24.083517 L101.506811,23.9873927 C101.050566,23.7714614 100.81062,23.4580127 100.761936,22.953012 C100.617968,21.3906444 100.522685,19.8268837 100.522685,16.0989339 C100.522685,13.6700548 100.450354,11.86668 100.402364,10.2792365 C104.820152,15.0408704 106.62079,16.9166867 106.62079,16.9166867 C106.62079,16.9166867 108.422819,18.8168824 113.801086,24.4923934 L114.449984,24.4923934 C114.401994,22.9293293 114.425641,19.8268837 114.425641,16.0989339 C114.425641,12.3473013 114.449984,10.7849337 114.570304,9.24555235 C114.617598,8.71617233 114.833897,8.42779953 115.314485,8.21117166 L115.290142,8.0913646 Z M93.415416,23.9873927 C92.9355241,23.7714614 92.6948826,23.5304542 92.6705403,22.953012 C92.5995997,21.3906444 92.6225511,19.8268837 92.6225511,16.0989339 C92.6225511,12.3473013 92.5995997,10.7849337 92.6705403,9.24555235 C92.6948826,8.6681102 92.9355241,8.40342019 93.415416,8.18679232 L93.3917692,8.0913646 C93.0551493,8.16380608 91.7594411,8.21117166 91.3984789,8.21117166 C91.0145654,8.21117166 89.7418085,8.18679232 89.3808463,8.0913646 L89.357895,8.18679232 C89.8370914,8.40342019 90.0777329,8.71617233 90.1020752,9.24555235 C90.1500644,10.7849337 90.1500644,12.3473013 90.1500644,16.0989339 C90.1500644,19.8268837 90.1500644,21.3906444 90.1020752,22.953012 C90.0777329,23.5060748 89.8621292,23.7463855 89.357895,23.9873927 L89.3808463,24.083517 C89.7418085,23.9873927 91.0145654,23.9873927 91.3984789,23.9873927 C91.7594411,23.9873927 93.0551493,24.0354549 93.3917692,24.083517 L93.415416,23.9873927 Z M86.45281,8.0913646 C85.9972604,8.16380608 85.4199991,8.21117166 84.9408027,8.21117166 C84.4602152,8.21117166 83.7153395,8.16380608 83.331426,8.0913646 L83.3077791,8.21117166 C84.0039702,8.52322725 84.1486332,8.78861381 83.955981,9.24555235 C83.3557683,10.7849337 82.2276745,13.5976133 81.2185105,15.8105611 C80.4499879,17.4697495 79.6814653,19.3455658 78.937285,20.9566921 C78.1924093,19.3455658 77.2319299,17.1333146 76.6553641,15.8593198 C75.0000847,12.1794321 74.2788558,10.7849337 73.6313494,9.24555235 C73.4386972,8.73985512 73.5819693,8.50024101 74.255209,8.21117166 L74.2308666,8.0913646 C73.8469531,8.16380608 72.2375764,8.21117166 71.7569889,8.21117166 C71.277097,8.21117166 70.0523293,8.16380608 69.5960842,8.0913646 L69.5724374,8.21117166 C70.0523293,8.35535806 70.6288951,8.93280021 70.9891618,9.63004942 C71.7820268,11.1694308 72.3099079,12.2267977 74.0382143,15.8593198 C75.7922541,19.4904488 77.2319299,22.7370807 77.8808273,24.2513862 L78.2167516,24.2513862 C78.865649,22.7370807 80.2823734,19.4904488 82.0350222,15.8593198 C83.787671,12.2267977 84.3885792,11.000865 85.1807486,9.43710433 C85.5403198,8.73985512 86.0216028,8.35535806 86.4771524,8.21117166 L86.45281,8.0913646 Z M66.6916948,23.9873927 C66.2118029,23.7714614 65.9718569,23.5304542 65.946819,22.953012 C65.8758785,21.3906444 65.8995254,19.8268837 65.8995254,16.0989339 C65.8995254,12.3473013 65.8758785,10.7849337 65.946819,9.24555235 C65.9718569,8.6681102 66.2118029,8.40342019 66.6916948,8.18679232 L66.6680479,8.0913646 C66.3321236,8.16380608 65.0343289,8.21117166 64.6747577,8.21117166 C64.2908441,8.21117166 63.0180873,8.18679232 62.6571251,8.0913646 L62.6341737,8.18679232 C63.1140657,8.40342019 63.3540116,8.71617233 63.378354,9.24555235 C63.4263432,10.7849337 63.4263432,12.3473013 63.4263432,16.0989339 C63.4263432,19.8268837 63.4263432,21.3906444 63.378354,22.953012 C63.3540116,23.5060748 63.138408,23.7463855 62.6341737,23.9873927 L62.6571251,24.083517 C63.0180873,23.9873927 64.2908441,23.9873927 64.6747577,23.9873927 C65.0343289,23.9873927 66.3321236,24.0354549 66.6680479,24.083517 L66.6916948,23.9873927 Z M58.913968,21.6546379 C56.9686669,23.0491363 53.7742558,23.3145229 50.5089042,23.2420814 C50.4372682,21.6783207 50.460915,19.8268837 50.460915,16.0989339 C50.460915,12.3473013 50.4372682,10.7849337 50.5089042,9.24555235 C50.5332465,8.73985512 50.7252033,8.40342019 51.2530844,8.18679232 L51.2294376,8.0913646 C50.8935132,8.16380608 49.596414,8.21117166 49.2368428,8.21117166 C48.8522338,8.21117166 47.5794769,8.18679232 47.2192102,8.0913646 L47.1955634,8.18679232 C47.6754553,8.40342019 47.9154013,8.69179299 47.9397436,9.24555235 C47.9877328,10.7849337 47.9877328,12.3473013 47.9877328,16.0989339 C47.9877328,19.8268837 47.9877328,21.3906444 47.9397436,22.953012 C47.9154013,23.4823921 47.7234445,23.7463855 47.1955634,23.9873927 L47.2192102,24.083517 C48.035722,24.0117721 49.2368428,23.9873927 50.0519636,23.9873927 L58.0244292,23.9873927 C58.0487715,23.7463855 58.913968,22.0154522 59.0335932,21.7507622 L58.913968,21.6546379 Z" id="Fill-652" fill="#000000"></path>
                        <path d="M149.816837,45.9415483 C149.21732,46.0139897 148.280487,46.0376725 147.92022,46.0376725 C147.536307,46.0376725 146.287197,46.0139897 145.711327,45.9415483 L145.686984,46.0620519 C146.239208,46.3260453 146.43186,46.5433698 146.43186,46.9034875 L146.43186,51.4004314 C145.230739,52.0503151 143.838357,52.3623706 142.157344,52.3623706 C138.652047,52.3623706 135.698277,49.3330631 135.698277,44.9552297 C135.698277,40.5063479 138.700036,37.524406 142.157344,37.524406 C145.230739,37.524406 147.296361,39.0874701 148.424455,41.5170458 L148.568422,41.4689837 L148.472444,38.9189044 C147.00773,37.3565368 144.534548,36.5624668 142.157344,36.5624668 C137.21098,36.5624668 132.912122,39.8571608 132.912122,44.9552297 C132.912122,50.0296158 137.21098,53.3486892 142.157344,53.3486892 C145.038087,53.3486892 147.584296,52.0503151 149.096999,49.8610501 L149.096999,46.9034875 C149.096999,46.5189904 149.289651,46.3023625 149.841179,46.0620519 L149.816837,45.9415483 Z M127.367631,36.9476604 C127.031707,37.0194053 126.407152,37.0674674 126.023238,37.0674674 C125.639325,37.0674674 124.990427,37.0194053 124.654503,36.9476604 L124.630161,37.0674674 C125.134395,37.2840953 125.350694,37.5724681 125.398683,38.1018481 C125.542651,39.6412295 125.59064,41.2035971 125.662972,44.9552297 C125.687314,46.2055417 125.758255,48.2986825 125.782597,49.6694981 C122.733544,46.5670526 120.284704,43.9696077 120.284704,43.9696077 C120.284704,43.9696077 117.810131,41.3721629 113.849284,37.0674674 L112.407522,37.0674674 C112.024304,37.0674674 110.919161,37.0194053 110.582541,36.9476604 L110.558199,37.0674674 C111.18345,37.3565368 111.735673,37.9569652 111.75932,38.6549109 C111.808005,40.1935958 111.808005,41.2035971 111.808005,44.9552297 C111.808005,48.6831795 111.783662,50.2469402 111.663342,51.8093078 C111.638999,52.2906257 111.399749,52.6277572 110.919161,52.8436885 L110.943504,52.9398128 C111.279428,52.8680679 111.855994,52.8436885 112.239907,52.8436885 C112.623821,52.8436885 113.224729,52.8680679 113.560653,52.9398128 L113.5843,52.8436885 C113.128055,52.6277572 112.888805,52.3143085 112.839425,51.8093078 C112.696152,50.2469402 112.600174,48.6831795 112.600174,44.9552297 C112.600174,42.5263506 112.527843,40.7229758 112.479853,39.1355323 C116.897641,43.8971662 118.698975,45.7729825 118.698975,45.7729825 C118.698975,45.7729825 120.500308,47.6731782 125.878575,53.3486892 L126.527473,53.3486892 C126.479483,51.785625 126.50313,48.6831795 126.50313,44.9552297 C126.50313,41.2035971 126.527473,39.6412295 126.647793,38.1018481 C126.695087,37.5724681 126.911386,37.2840953 127.391974,37.0674674 L127.367631,36.9476604 Z M105.492905,52.8436885 C105.013013,52.6277572 104.772372,52.38675 104.748029,51.8093078 C104.677089,50.2469402 104.70004,48.6831795 104.70004,44.9552297 C104.70004,41.2035971 104.677089,39.6412295 104.748029,38.1018481 C104.772372,37.524406 105.013013,37.259716 105.492905,37.0430881 L105.469258,36.9476604 C105.133334,37.0194053 103.83693,37.0674674 103.475968,37.0674674 C103.092054,37.0674674 101.819297,37.0430881 101.459031,36.9476604 L101.435384,37.0430881 C101.91458,37.259716 102.155222,37.5724681 102.179564,38.1018481 C102.227553,39.6412295 102.227553,41.2035971 102.227553,44.9552297 C102.227553,48.6831795 102.227553,50.2469402 102.179564,51.8093078 C102.155222,52.3623706 101.939618,52.6026813 101.435384,52.8436885 L101.459031,52.9398128 C101.819297,52.8436885 103.092054,52.8436885 103.475968,52.8436885 C103.83693,52.8436885 105.133334,52.8917507 105.469258,52.9398128 L105.492905,52.8436885 Z M98.5309945,36.9476604 C98.0747494,37.0194053 97.4981836,37.0674674 97.0182917,37.0674674 C96.5377042,37.0674674 95.7928285,37.0194053 95.4089149,36.9476604 L95.3859636,37.0674674 C96.0814591,37.379523 96.2261222,37.6449096 96.0334699,38.1018481 C95.4339528,39.6412295 94.3051635,42.4539091 93.2959994,44.6661604 C92.5281723,46.3260453 91.7589543,48.2018616 91.014774,49.8129879 C90.2698983,48.2018616 89.3094189,45.9896104 88.7335486,44.7156156 C87.0775737,41.0357279 86.3563448,39.6412295 85.7088384,38.1018481 C85.5161862,37.5961509 85.6594582,37.3565368 86.3326979,37.0674674 L86.3083556,36.9476604 C85.924442,37.0194053 84.3150653,37.0674674 83.8344779,37.0674674 C83.354586,37.0674674 82.1298183,37.0194053 81.6735732,36.9476604 L81.6499264,37.0674674 C82.1298183,37.2116538 82.7063841,37.789096 83.0666508,38.4863452 C83.8595157,40.0257266 84.3873969,41.0830935 86.1163988,44.7156156 C87.8697431,48.3467446 89.3094189,51.5933765 89.9590118,53.107682 L90.2942406,53.107682 C90.943138,51.5933765 92.3598624,48.3467446 94.1125112,44.7156156 C95.86516,41.0830935 96.4667637,39.8571608 97.2589331,38.2940967 C97.6178088,37.5961509 98.0990917,37.2116538 98.5546413,37.0674674 L98.5309945,36.9476604 Z M70.2222389,52.3623706 C66.9805341,52.3623706 64.1227429,49.5489945 64.1227429,44.9552297 C64.1227429,40.3377822 66.9805341,37.524406 70.2222389,37.524406 C73.4639437,37.524406 76.3217349,40.3377822 76.3217349,44.9552297 C76.3217349,49.5489945 73.4639437,52.3623706 70.2222389,52.3623706 L70.2222389,52.3623706 Z M70.2222389,36.5624668 C65.5394673,36.5624668 61.4332615,39.8571608 61.4332615,44.9552297 C61.4332615,50.0296158 65.5394673,53.3486892 70.2222389,53.3486892 C74.9050105,53.3486892 79.0112162,50.0296158 79.0112162,44.9552297 C79.0112162,39.8571608 74.9050105,36.5624668 70.2222389,36.5624668 L70.2222389,36.5624668 Z M58.9134811,50.5109337 C56.9681801,51.9054321 53.7744645,52.1708187 50.5084174,52.0983772 C50.4374768,50.535313 50.4611237,48.6831795 50.4611237,44.9552297 C50.4611237,41.2035971 50.4374768,39.6412295 50.5084174,38.1018481 C50.5334552,37.5961509 50.725412,37.259716 51.2532931,37.0430881 L51.2296462,36.9476604 C50.8937219,37.0194053 49.5959272,37.0674674 49.236356,37.0674674 C48.8524424,37.0674674 47.5796856,37.0430881 47.2187234,36.9476604 L47.195772,37.0430881 C47.675664,37.259716 47.9156099,37.5480888 47.9399523,38.1018481 C47.9879415,39.6412295 47.9879415,41.2035971 47.9879415,44.9552297 C47.9879415,48.6831795 47.9879415,50.2469402 47.9399523,51.8093078 C47.9156099,52.3386878 47.7236531,52.6026813 47.195772,52.8436885 L47.2187234,52.9398128 C48.0359307,52.8680679 49.236356,52.8436885 50.0521723,52.8436885 L58.0246378,52.8436885 C58.0489802,52.6026813 58.9134811,50.871748 59.0338019,50.607058 L58.9134811,50.5109337 Z" id="Fill-654" fill="#000000"></path>
                        <path d="M102.525156,74.645508 C102.156543,74.4853009 102.044568,74.3090731 102.028572,73.9559209 C101.996579,72.9138781 101.996579,71.8704422 101.996579,69.3851423 C101.996579,66.8831252 101.996579,65.8410824 102.028572,64.8150604 C102.044568,64.4619082 102.17254,64.2689631 102.525156,64.1247767 L102.508464,64.0446731 C102.139851,64.0927353 101.723945,64.1247767 101.340031,64.1247767 C101.082698,64.1247767 100.36286,64.1080594 100.234889,64.0927353 C99.8022908,65.1187573 99.1937322,66.7229181 98.0572925,69.3370802 C97.736669,70.0747295 97.272078,71.2623518 96.7754942,72.3517601 C96.2796058,71.2456345 96.5362437,71.8223801 95.3824166,69.3851423 C94.2292849,66.8831252 93.429465,65.134778 92.9808704,64.0927353 C92.8202109,64.1080594 92.0196955,64.1247767 91.7477568,64.1247767 C91.4271333,64.1247767 90.7865819,64.0767146 90.6266179,64.0446731 L90.6106215,64.1247767 C90.9632378,64.2856804 91.091209,64.4772323 91.1072054,64.8150604 C91.1391982,65.8410824 91.1391982,66.8831252 91.1391982,69.3851423 C91.1391982,71.8704422 91.0745171,72.9138781 91.0432198,73.9559209 C91.0265279,74.3411145 90.8832558,74.4853009 90.5459405,74.645508 L90.5626324,74.7102874 C90.7865819,74.6608322 91.2024883,74.645508 91.4431297,74.645508 C91.7004631,74.645508 92.0996775,74.6608322 92.3243226,74.7102874 L92.3396235,74.645508 C92.0356919,74.500625 91.8597316,74.3411145 91.8437352,73.9559209 C91.8117424,72.9138781 91.7477568,71.8704422 91.7477568,69.3851423 C91.7477568,67.2843395 91.6677748,66.1775174 91.635782,65.2315989 L91.7477568,65.4231508 C92.1796595,66.3217038 92.5649641,67.1875187 93.589429,69.3851423 C94.7578615,71.8871595 95.5110832,73.4585823 95.942986,74.4853009 L96.4715626,74.4853009 C96.9041608,73.4585823 97.4487339,71.967263 98.5858691,69.3370802 C99.4983593,67.2676223 99.9622548,66.1935381 100.410849,65.246923 C100.410849,66.1608001 100.347559,67.2362774 100.347559,69.3851423 C100.347559,71.8871595 100.347559,72.9138781 100.314871,73.9559209 C100.298179,74.3571352 100.122219,74.500625 99.8189827,74.645508 L99.8342836,74.7102874 C100.058233,74.6608322 100.924125,74.645508 101.179372,74.645508 C101.43601,74.645508 102.284514,74.6608322 102.508464,74.7102874 L102.525156,74.645508 Z M77.389251,70.8764616 L77.9818132,69.5613702 C78.5430782,68.3110582 79.0069737,67.204236 79.502862,66.1454759 C79.9994459,67.204236 80.4000513,68.1661752 81.0246063,69.5293287 L81.6331649,70.8764616 L77.389251,70.8764616 Z M85.7477166,74.645508 C85.4444806,74.5493837 85.0438751,74.1641901 84.8032337,73.6995895 C84.274657,72.6568502 83.9387327,71.967263 82.7703001,69.5293287 C81.6011721,67.1074152 80.6559937,64.9585502 80.2240909,63.9478523 L79.9994459,63.9478523 C79.5675431,64.9585502 78.6063683,67.1074152 77.4379357,69.5293287 C76.2848041,71.967263 75.8675068,72.7857124 75.3396256,73.8277552 C75.0996797,74.2770316 74.7950526,74.5493837 74.4744292,74.645508 L74.4911211,74.7102874 C74.7950526,74.6608322 75.195658,74.645508 75.4995896,74.645508 C75.8202131,74.645508 76.3161014,74.6608322 76.5887356,74.7102874 L76.6040365,74.645508 C76.2048221,74.500625 75.9954779,74.3571352 76.1561374,73.9559209 C76.4607645,73.2342923 76.684714,72.5767466 77.1653015,71.4211658 L81.8891073,71.4211658 C82.4343758,72.5767466 82.7536083,73.2342923 83.0582353,73.9559209 C83.2022029,74.3243972 83.0262425,74.4853009 82.6256371,74.645508 L82.642329,74.7102874 C82.9142677,74.6608322 83.9867219,74.645508 84.3073453,74.645508 C84.6119724,74.645508 85.4284842,74.6608322 85.7324157,74.7102874 L85.7477166,74.645508 Z M70.3974342,73.0894094 C69.2290017,73.9231829 67.371333,74.1481694 65.417686,74.1481694 L64.793131,74.1481694 C64.7618337,73.5386858 64.7618337,72.8490987 64.7618337,71.8871595 L64.7618337,69.513308 L64.7618337,69.4812666 C67.9319025,69.4979839 68.315816,69.6094323 68.4924719,70.3157367 L68.5724539,70.2990194 C68.5237692,69.9305431 68.5077728,69.658191 68.5077728,69.2249352 C68.5077728,68.8077002 68.5237692,68.5346516 68.5724539,68.1501545 L68.4924719,68.1334372 C68.315816,68.7909829 67.9319025,68.9518866 64.7618337,68.983928 L64.7618337,66.9472081 C64.7618337,66.1454759 64.7618337,65.5527096 64.793131,64.605398 C65.1777401,64.5740532 65.5463527,64.5740532 65.897578,64.5740532 C67.371333,64.5740532 68.6517404,64.8303845 69.6928972,65.7609789 L69.7735747,65.6641581 C69.6456035,65.3757853 69.2769909,64.3657839 69.260299,64.1247767 L64.3605328,64.1247767 C63.6719922,64.1247767 63.1434156,64.0927353 62.599538,64.0446731 L62.5828461,64.1247767 C62.7921903,64.220901 63.0634336,64.3490667 63.0801255,64.8150604 C63.1114228,65.8410824 63.1114228,66.8831252 63.1114228,69.3851423 C63.1114228,71.8704422 63.1114228,72.9138781 63.0801255,73.9559209 C63.0634336,74.421218 62.7921903,74.5493837 62.5828461,74.645508 L62.599538,74.7102874 C63.1434156,74.6608322 63.6719922,74.645508 64.408522,74.645508 L69.8055675,74.645508 C69.8215639,74.4853009 70.3974342,73.3304166 70.4774162,73.1541888 L70.3974342,73.0894094 Z M56.9834114,65.6641581 C56.9034294,65.4231508 56.504215,64.2689631 56.4875231,64.1247767 L48.0476845,64.1247767 C48.0323836,64.2689631 47.6164773,65.4398681 47.5364953,65.6808753 L47.6164773,65.7609789 C48.7049278,64.9432261 50.161991,64.6541567 51.4430938,64.6541567 L51.4430938,69.3851423 C51.4430938,71.8871595 51.4430938,72.9138781 51.411101,73.9559209 C51.3951046,74.3243972 51.2671335,74.500625 50.9145172,74.645508 L50.9312091,74.7102874 C51.1551587,74.6608322 52.0196596,74.645508 52.2762975,74.645508 C52.515548,74.645508 53.380049,74.6608322 53.6053895,74.7102874 L53.6206904,74.645508 C53.2847661,74.500625 53.141494,74.3243972 53.1248021,73.9559209 C53.0921138,72.9138781 53.0921138,71.8871595 53.0921138,69.3851423 L53.0921138,64.6541567 C54.3739121,64.6541567 55.8149789,64.9265088 56.9034294,65.7442616 L56.9834114,65.6641581 Z" id="Fill-656" fill="#000000"></path>
                        <path d="M16.9822627,0.371123254 C7.68140067,0.371123254 0.115104514,7.91757471 0.115104514,17.1921733 C0.115104514,20.7278746 1.21885596,24.0086376 3.09530297,26.7196205 L5.17622567,25.1809357 C3.62109761,22.902512 2.70860744,20.1525221 2.70860744,17.1921733 C2.70860744,9.34411455 9.11133953,2.95811981 16.9822627,2.95811981 C24.8510995,2.95811981 31.254527,9.34411455 31.254527,17.1921733 C31.254527,24.3130311 25.9805842,30.211439 19.1278665,31.2486059 L19.1278665,33.8634645 C27.4146961,32.8060976 33.84803,25.7423571 33.84803,17.1921733 C33.84803,7.91757471 26.2817338,0.371123254 16.9822627,0.371123254" id="Fill-658" fill="#D4AE7A"></path>
                    </g>
                    <polyline id="Fill-661" fill="#1A7C7A" points="42 57 20 57 20 60 42 60"></polyline>
                    <polyline id="Fill-662" fill="#1A7C7A" points="42 39 20 39 20 42 42 42"></polyline>
                    <polygon id="Fill-663" fill="#1A7C7A" points="41.674157 73.6988965 41.674157 72.397793 22.652397 72.397793 22.6516861 28.5155018 40.347603 16.0670871 40.3483139 73.6988965 41.674157 73.6988965 41.674157 72.397793 41.674157 73.6988965 43 73.6988965 43 11 20 27.1779646 20 75 43 75 43 73.6988965"></polygon>
                    <polygon id="Fill-664" fill="#1A7C7A" points="21.6742389 73.7396819 21.6742389 72.4793637 2.65152218 72.4793637 2.65152218 42.6117922 20.347767 31.6503499 20.3484778 73.7396819 21.6742389 73.7396819 21.6742389 72.4793637 21.6742389 73.7396819 23 73.7396819 23 27 0 41.2455992 0 75 23 75 23 73.7396819"></polygon>
                </g>
            </g>
        </g>
    </g>
</svg>