<?xml version="1.0" encoding="UTF-8"?>
<svg width="65px" height="50px" viewBox="0 0 65 50" version="1.1" xmlns="http://www.w3.org/2000/svg" xmlns:xlink="http://www.w3.org/1999/xlink">
    <!-- Generator: Sketch 59.1 (86144) - https://sketch.com -->
    <title>duck-light</title>
    <desc>Created with Sketch.</desc>
    <g id="Page-1" stroke="none" stroke-width="1" fill="none" fill-rule="evenodd">
        <g id="Homepage-1440-Copy" transform="translate(-440.000000, -2821.000000)" fill="#D3E9D6" fill-rule="nonzero">
            <g id="Group-3" transform="translate(100.000000, 2761.000000)">
                <g id="duck-light" transform="translate(340.000000, 60.000000)">
                    <path d="M48.2142857,25 C56.1037946,25 64.2857143,18.6037946 64.2857143,10.7142857 L53.3962054,10.7142857 C53.3470982,10.3560268 53.3337054,10.0044643 53.2522321,9.64174107 C52.2455357,5.11607143 48.6082589,1.41294643 44.09375,0.354910714 C43.0691964,0.113839286 42.0569196,0 41.0714286,0 C34.1674107,0 28.5714286,5.59598214 28.5714286,12.5 L28.5714286,25 L21.7935268,25 C18.9274554,25 16.2366071,23.8761161 13.9866071,22.0993304 C13.4285714,21.6584821 12.7444196,21.4274554 12.0502232,21.4274554 C11.6473214,21.4274554 11.2421875,21.5055804 10.8549107,21.6640625 C9.68415179,22.1506696 8.92857143,23.28125 8.92857143,24.5479911 C8.92857143,24.703125 8.96986607,24.8459821 8.97433036,25 L3.59933036,25 C1.43638393,25 -0.303571429,26.9207589 0.0446428571,29.0558036 C1.98214286,40.9341518 12.2912946,50 24.7176339,50 L35.8716518,50 C43.4877232,50 50.2522321,43.765625 49.9933036,36.1540179 C49.8805804,32.8348214 48.5323661,29.8448661 46.4296875,27.5625 L46.4296875,25 L48.2142857,25 Z M53.4296875,14.2857143 L60.1026786,14.2857143 C58.8091518,17.9330357 53.8080357,20.6752232 49.8939732,21.2946429 C51.7578125,19.4408482 53.0345982,17.0122768 53.4296875,14.2857143 L53.4296875,14.2857143 Z M43.8013393,29.9821429 C45.4129464,31.7321429 46.34375,33.9665179 46.4229911,36.2745536 C46.5066964,38.75 45.5357143,41.1662946 43.6886161,43.078125 C41.6305804,45.2075893 38.78125,46.4285714 35.8716518,46.4285714 L24.7176339,46.4285714 C14.1183036,46.4285714 5.29241071,38.6930804 3.58705357,28.5714286 L9.48214286,28.5714286 C11.2912946,35.7332589 17.7354911,41.0714286 25.4520089,41.0714286 L27.6785714,41.0714286 C28.171875,41.0714286 28.5714286,40.671875 28.5714286,40.1785714 L28.5714286,38.3928571 C28.5714286,37.8995536 28.171875,37.5 27.6785714,37.5 L25.4508929,37.5 C18.6651786,37.5 13.0803571,32.2544643 12.5424107,25.6037946 C14.9151786,27.5736607 18.0212054,28.5714286 21.7924107,28.5714286 L32.1428571,28.5714286 L32.1428571,12.5 C32.1428571,7.56919643 36.140625,3.57142857 41.0714286,3.57142857 C46.0022321,3.57142857 50,7.56919643 50,12.5 C50,16.2756696 47.6484375,19.4866071 44.3359375,20.7924107 C42.9051339,21.4754464 43.0401786,21.4107143 42.8571429,21.4988839 L42.8571429,28.9575893 L43.8013393,29.9821429 L43.8013393,29.9821429 Z M41.0714286,10.7142857 C40.0848214,10.7142857 39.2857143,11.5133929 39.2857143,12.5 C39.2857143,13.4866071 40.0848214,14.2857143 41.0714286,14.2857143 C42.0580357,14.2857143 42.8571429,13.4866071 42.8571429,12.5 C42.8571429,11.5133929 42.0580357,10.7142857 41.0714286,10.7142857 Z" id="Shape"></path>
                </g>
            </g>
        </g>
    </g>
</svg>