<?xml version="1.0" encoding="UTF-8"?>
<svg width="63px" height="50px" viewBox="0 0 63 50" version="1.1" xmlns="http://www.w3.org/2000/svg" xmlns:xlink="http://www.w3.org/1999/xlink">
    <!-- Generator: Sketch 59.1 (86144) - https://sketch.com -->
    <title>city-light</title>
    <desc>Created with Sketch.</desc>
    <g id="Page-1" stroke="none" stroke-width="1" fill="none" fill-rule="evenodd">
        <g id="Homepage-1440-Copy" transform="translate(-193.000000, -2821.000000)" fill="#D3E9D6" fill-rule="nonzero">
            <g id="Group-3" transform="translate(100.000000, 2761.000000)">
                <g id="city-light" transform="translate(93.000000, 60.000000)">
                    <path d="M12.890625,35.9375 L8.984375,35.9375 C8.33789062,35.9375 7.8125,36.4619141 7.8125,37.109375 L7.8125,41.015625 C7.8125,41.6630859 8.33789062,42.1875 8.984375,42.1875 L12.890625,42.1875 C13.5371094,42.1875 14.0625,41.6630859 14.0625,41.015625 L14.0625,37.109375 C14.0625,36.4619141 13.5371094,35.9375 12.890625,35.9375 Z M12.890625,26.5625 L8.984375,26.5625 C8.33789062,26.5625 7.8125,27.0869141 7.8125,27.734375 L7.8125,31.640625 C7.8125,32.2880859 8.33789062,32.8125 8.984375,32.8125 L12.890625,32.8125 C13.5371094,32.8125 14.0625,32.2880859 14.0625,31.640625 L14.0625,27.734375 C14.0625,27.0869141 13.5371094,26.5625 12.890625,26.5625 Z M12.890625,17.1875 L8.984375,17.1875 C8.33789062,17.1875 7.8125,17.7119141 7.8125,18.359375 L7.8125,22.265625 C7.8125,22.9130859 8.33789062,23.4375 8.984375,23.4375 L12.890625,23.4375 C13.5371094,23.4375 14.0625,22.9130859 14.0625,22.265625 L14.0625,18.359375 C14.0625,17.7119141 13.5371094,17.1875 12.890625,17.1875 Z M22.265625,35.9375 L18.359375,35.9375 C17.7128906,35.9375 17.1875,36.4619141 17.1875,37.109375 L17.1875,41.015625 C17.1875,41.6630859 17.7128906,42.1875 18.359375,42.1875 L22.265625,42.1875 C22.9121094,42.1875 23.4375,41.6630859 23.4375,41.015625 L23.4375,37.109375 C23.4375,36.4619141 22.9121094,35.9375 22.265625,35.9375 Z M22.265625,26.5625 L18.359375,26.5625 C17.7128906,26.5625 17.1875,27.0869141 17.1875,27.734375 L17.1875,31.640625 C17.1875,32.2880859 17.7128906,32.8125 18.359375,32.8125 L22.265625,32.8125 C22.9121094,32.8125 23.4375,32.2880859 23.4375,31.640625 L23.4375,27.734375 C23.4375,27.0869141 22.9121094,26.5625 22.265625,26.5625 Z M22.265625,17.1875 L18.359375,17.1875 C17.7128906,17.1875 17.1875,17.7119141 17.1875,18.359375 L17.1875,22.265625 C17.1875,22.9130859 17.7128906,23.4375 18.359375,23.4375 L22.265625,23.4375 C22.9121094,23.4375 23.4375,22.9130859 23.4375,22.265625 L23.4375,18.359375 C23.4375,17.7119141 22.9121094,17.1875 22.265625,17.1875 Z M41.015625,26.5625 L37.109375,26.5625 C36.4628906,26.5625 35.9375,27.0869141 35.9375,27.734375 L35.9375,31.640625 C35.9375,32.2880859 36.4628906,32.8125 37.109375,32.8125 L41.015625,32.8125 C41.6621094,32.8125 42.1875,32.2880859 42.1875,31.640625 L42.1875,27.734375 C42.1875,27.0869141 41.6621094,26.5625 41.015625,26.5625 Z M41.015625,17.1875 L37.109375,17.1875 C36.4628906,17.1875 35.9375,17.7119141 35.9375,18.359375 L35.9375,22.265625 C35.9375,22.9130859 36.4628906,23.4375 37.109375,23.4375 L41.015625,23.4375 C41.6621094,23.4375 42.1875,22.9130859 42.1875,22.265625 L42.1875,18.359375 C42.1875,17.7119141 41.6621094,17.1875 41.015625,17.1875 Z M41.015625,7.8125 L37.109375,7.8125 C36.4628906,7.8125 35.9375,8.33691406 35.9375,8.984375 L35.9375,12.890625 C35.9375,13.5380859 36.4628906,14.0625 37.109375,14.0625 L41.015625,14.0625 C41.6621094,14.0625 42.1875,13.5380859 42.1875,12.890625 L42.1875,8.984375 C42.1875,8.33691406 41.6621094,7.8125 41.015625,7.8125 Z M53.515625,35.9375 L49.609375,35.9375 C48.9628906,35.9375 48.4375,36.4619141 48.4375,37.109375 L48.4375,41.015625 C48.4375,41.6630859 48.9628906,42.1875 49.609375,42.1875 L53.515625,42.1875 C54.1621094,42.1875 54.6875,41.6630859 54.6875,41.015625 L54.6875,37.109375 C54.6875,36.4619141 54.1621094,35.9375 53.515625,35.9375 Z M53.515625,26.5625 L49.609375,26.5625 C48.9628906,26.5625 48.4375,27.0869141 48.4375,27.734375 L48.4375,31.640625 C48.4375,32.2880859 48.9628906,32.8125 49.609375,32.8125 L53.515625,32.8125 C54.1621094,32.8125 54.6875,32.2880859 54.6875,31.640625 L54.6875,27.734375 C54.6875,27.0869141 54.1621094,26.5625 53.515625,26.5625 Z M60.15625,18.75 L50,18.75 L50,2.34375 C50,1.04882812 48.9501953,0 47.65625,0 L30.46875,0 C29.1748047,0 28.125,1.04882812 28.125,2.34375 L28.125,9.375 L21.875,9.375 L21.875,0.78125 C21.875,0.349609375 21.5253906,0 21.09375,0 L19.53125,0 C19.0996094,0 18.75,0.349609375 18.75,0.78125 L18.75,9.375 L12.5,9.375 L12.5,0.78125 C12.5,0.349609375 12.1503906,0 11.71875,0 L10.15625,0 C9.72460938,0 9.375,0.349609375 9.375,0.78125 L9.375,9.375 L2.34375,9.375 C1.04980469,9.375 0,10.4238281 0,11.71875 L0,49.21875 C0,49.6503906 0.349609375,50 0.78125,50 L2.34375,50 C2.77539062,50 3.125,49.6503906 3.125,49.21875 L3.125,12.5 L31.25,12.5 L31.25,3.125 L46.875,3.125 L46.875,21.875 L59.375,21.875 L59.375,49.21875 C59.375,49.6503906 59.7246094,50 60.15625,50 L61.71875,50 C62.1503906,50 62.5,49.6503906 62.5,49.21875 L62.5,21.09375 C62.5,19.7988281 61.4501953,18.75 60.15625,18.75 Z" id="Shape"></path>
                </g>
            </g>
        </g>
    </g>
</svg>