<?xml version="1.0" encoding="UTF-8"?>
<svg width="50px" height="50px" viewBox="0 0 50 50" version="1.1" xmlns="http://www.w3.org/2000/svg" xmlns:xlink="http://www.w3.org/1999/xlink">
    <!-- Generator: Sketch 59.1 (86144) - https://sketch.com -->
    <title>chimney-duotone</title>
    <desc>Created with Sketch.</desc>
    <g id="Page-1" stroke="none" stroke-width="1" fill="none" fill-rule="evenodd">
        <g id="Homepage-1440-Copy" transform="translate(-943.000000, -2821.000000)" fill="#D3E9D6" fill-rule="nonzero">
            <g id="Group-3" transform="translate(100.000000, 2761.000000)">
                <g id="chimney-duotone" transform="translate(843.000000, 60.000000)">
                    <path d="M15.625,21.875 L3.125,21.875 L3.125,34.375 L15.625,34.375 L15.625,21.875 Z M3.125,50 L31.25,50 L31.25,37.5 L3.125,37.5 L3.125,50 Z M34.375,50 L46.875,50 L46.875,37.5 L34.375,37.5 L34.375,50 Z M18.75,21.875 L18.75,34.375 L46.875,34.375 L46.875,21.875 L18.75,21.875 Z" id="Shape" opacity="0.4"></path>
                    <path d="M0,15.625 L0,3.125 C0,1.39911016 1.39911016,0 3.125,0 L46.875,0 C48.6008898,0 50,1.39911016 50,3.125 L50,15.625 C50,17.3508898 48.6008898,18.75 46.875,18.75 L3.125,18.75 C1.39911016,18.75 0,17.3508898 0,15.625 Z" id="Path"></path>
                </g>
            </g>
        </g>
    </g>
</svg>